<svg width="20" height="20" viewBox="0 0 20 20" fill="none" xmlns="http://www.w3.org/2000/svg">
<path d="M6.49993 6.49992C6.89045 6.1094 7.52362 6.1094 7.91414 6.49992L9.99997 8.58572L12.0857 6.49992C12.4763 6.1094 13.1094 6.1094 13.5 6.49992C13.8905 6.89045 13.8905 7.52361 13.5 7.91414L11.4142 9.99992L13.5 12.0857C13.8905 12.4762 13.8905 13.1094 13.5 13.4999C13.1094 13.8904 12.4763 13.8904 12.0857 13.4999L9.99997 11.4141L7.91413 13.4999C7.52361 13.8904 6.89045 13.8904 6.49992 13.4999C6.1094 13.1094 6.1094 12.4762 6.49992 12.0857L8.58567 9.99992L6.49993 7.91414C6.1094 7.52361 6.1094 6.89045 6.49993 6.49992Z" fill="#F03D3D"/>
<path fill-rule="evenodd" clip-rule="evenodd" d="M20.0001 10C20.0001 15.5228 15.5229 20 10 20C4.47716 20 0 15.5228 0 10C0 4.47715 4.47716 0 10 0C15.5229 0 20.0001 4.47715 20.0001 10ZM18.0001 10C18.0001 14.4183 14.4182 18 10 18C5.58173 18 2 14.4183 2 10C2 5.58172 5.58173 2 10 2C14.4182 2 18.0001 5.58172 18.0001 10Z" fill="#F03D3D"/>
</svg>
