<svg width="20" height="20" viewBox="0 0 20 20" fill="none" xmlns="http://www.w3.org/2000/svg">
<path d="M14.4999 6.99992C14.8904 7.39044 14.8904 8.02364 14.4999 8.41414L9.70702 13.207C9.31652 13.5975 8.68332 13.5975 8.29282 13.207L5.99992 10.9141C5.6094 10.5236 5.6094 9.89044 5.99992 9.49994C6.39045 9.10944 7.02361 9.10944 7.41414 9.49994L8.99992 11.0857L13.0857 6.99992C13.1345 6.9511 13.1871 6.90839 13.2426 6.87178C13.6307 6.6155 14.1582 6.65821 14.4999 6.99992Z" fill="#0BB07B"/>
<path fill-rule="evenodd" clip-rule="evenodd" d="M20 10C20 15.5228 15.5228 20 10 20C4.47715 20 0 15.5228 0 10C0 4.47715 4.47715 0 10 0C15.5228 0 20 4.47715 20 10ZM18 10C18 14.4183 14.4183 18 10 18C5.58172 18 2 14.4183 2 10C2 5.58172 5.58172 2 10 2C14.4183 2 18 5.58172 18 10Z" fill="#0BB07B"/>
</svg>
