<svg width="20" height="20" viewBox="0 0 20 20" fill="none" xmlns="http://www.w3.org/2000/svg">
<path d="M11.0513 5.6465C11.0595 5.36473 10.8334 5.13184 10.5515 5.13184H9.44827C9.16627 5.13184 8.93997 5.36497 8.94847 5.64687L9.11017 11.0215C9.11117 11.0553 9.11557 11.0882 9.12287 11.1199C9.17437 11.342 9.37347 11.5065 9.60997 11.5065H10.3939C10.6643 11.5065 10.8857 11.2914 10.8936 11.0211L11.0513 5.6465Z" fill="#F03D3D"/>
<path d="M9.18723 14.7392C9.41413 14.9629 9.68583 15.0747 10.0022 15.0747C10.2067 15.0747 10.3953 15.0236 10.5679 14.9213C10.7405 14.8159 10.8795 14.6768 10.985 14.5043C11.0936 14.3285 11.1496 14.1351 11.1528 13.9242C11.1496 13.611 11.0329 13.3425 10.8028 13.1188C10.5727 12.8951 10.3058 12.7832 10.0022 12.7832C9.68583 12.7832 9.41413 12.8951 9.18723 13.1188C8.96033 13.3425 8.84843 13.611 8.85163 13.9242C8.84843 14.2406 8.96033 14.5122 9.18723 14.7392Z" fill="#F03D3D"/>
<path fill-rule="evenodd" clip-rule="evenodd" d="M10 20C15.5228 20 20 15.5228 20 10C20 4.47715 15.5228 0 10 0C4.47715 0 0 4.47715 0 10C0 15.5228 4.47715 20 10 20ZM10 18C14.4183 18 18 14.4183 18 10C18 5.58172 14.4183 2 10 2C5.58172 2 2 5.58172 2 10C2 14.4183 5.58172 18 10 18Z" fill="#F03D3D"/>
</svg>
